<svg width="20" height="20" viewBox="0 0 20 20" fill="none" xmlns="http://www.w3.org/2000/svg">
<path d="M10 20C8.61667 20 7.31667 19.7375 6.1 19.2125C4.88333 18.6875 3.825 17.975 2.925 17.075C2.025 16.175 1.3125 15.1167 0.7875 13.9C0.2625 12.6833 0 11.3833 0 10H0.816327C0.816327 12.602 1.7275 14.8008 3.54985 16.5964C5.37219 18.3919 7.57196 19.2851 10.1491 19.2759L7.68446 16.8112L8.27903 16.2166L11.8525 19.7645C11.9349 19.7109 11.7929 19.7367 11.4266 19.842C11.0603 19.9473 10.5848 20 10 20ZM10.9262 12.135V7.865H13.752C13.922 7.865 14.0666 7.92367 14.1856 8.04102C14.3047 8.15837 14.3642 8.30378 14.3642 8.47724V11.5228C14.3642 11.6962 14.3055 11.8416 14.1882 11.959C14.0708 12.0763 13.9254 12.135 13.752 12.135H10.9262ZM5.63579 12.135V11.5385H8.47725V10.3925H6.86028V9.60753H8.47725V8.46153H5.63579V7.865H8.77551C8.86002 7.865 8.93086 7.89358 8.98804 7.95074C9.0452 8.00792 9.07378 8.07876 9.07378 8.16327V11.8367C9.07378 11.9212 9.0452 11.9921 8.98804 12.0493C8.93086 12.1064 8.86002 12.135 8.77551 12.135H5.63579ZM11.5228 11.5385H13.5322C13.6107 11.5385 13.6695 11.5188 13.7088 11.4796C13.748 11.4403 13.7677 11.3815 13.7677 11.303V8.69701C13.7677 8.61853 13.748 8.55966 13.7088 8.52041C13.6695 8.48116 13.6107 8.46153 13.5322 8.46153H11.5228V11.5385ZM19.1837 10C19.1837 7.39796 18.2725 5.19917 16.4502 3.40365C14.6278 1.60812 12.428 0.714941 9.85087 0.724107L12.3155 3.18878L11.721 3.78337L8.14755 0.235485C8.06514 0.289108 8.20708 0.263266 8.57339 0.15796C8.93969 0.0526535 9.41522 0 10 0C11.3833 0 12.6833 0.2625 13.9 0.7875C15.1167 1.3125 16.175 2.025 17.075 2.925C17.975 3.825 18.6875 4.88333 19.2125 6.1C19.7375 7.31667 20 8.61667 20 10H19.1837Z" fill="black"/>
</svg>
