<svg width="977" height="296" viewBox="0 0 977 296" fill="none" xmlns="http://www.w3.org/2000/svg">
<path d="M359.137 147.209V196.091H418.404V216.6H359.137V293.615H337.143V126.702H436.001V147.209H359.137Z" fill="black"/>
<path d="M459.838 220.415H519.569C519.569 203.959 510.769 193.47 491.785 193.47C473.265 193.47 464.004 203.484 459.838 220.415ZM457.986 235.198C460.996 267.622 479.055 276.925 500.585 276.925C511.002 276.925 523.04 274.78 533.227 270.011L536.004 286.939C527.209 290.993 514.474 296 498.038 296C457.986 296 436.685 267.864 436.685 234.242C436.685 201.575 457.059 174.393 492.249 174.393C520.494 174.393 541.099 192.275 541.099 223.753C541.099 227.089 540.868 231.144 540.173 235.198H457.986Z" fill="black"/>
<path d="M576.741 235.198C576.741 258.088 588.779 276.925 608.69 276.925C625.359 276.925 644.11 265.24 644.11 235.909C644.11 207.777 625.359 193.47 608.69 193.47C588.779 193.47 576.741 211.352 576.741 235.198ZM644.11 293.615L641.795 278.834C633.231 290.28 617.257 296 607.068 296C578.128 296 555.441 269.294 555.441 235.198C555.441 203.245 575.353 174.393 607.068 174.393C617.257 174.393 632.072 177.014 641.795 189.175V114.78H662.632V293.615H644.11Z" fill="black"/>
<path d="M706.84 220.415H766.569C766.569 203.959 757.772 193.47 738.788 193.47C720.268 193.47 711.007 203.484 706.84 220.415ZM704.987 235.198C707.997 267.622 726.055 276.925 747.585 276.925C758.003 276.925 770.043 274.78 780.228 270.011L783.007 286.939C774.21 290.993 761.477 296 745.039 296C704.987 296 683.688 267.864 683.688 234.242C683.688 201.575 704.059 174.393 739.252 174.393C767.497 174.393 788.099 192.275 788.099 223.753C788.099 227.089 787.87 231.144 787.176 235.198H704.987Z" fill="black"/>
<path d="M864.488 196.091H857.311C847.819 196.091 835.317 203.72 831.382 211.113V293.615H809.157V176.777H826.287L828.836 196.091C842.494 180.113 853.376 172.484 867.265 172.484H869.119L864.488 196.091Z" fill="black"/>
<path d="M941.112 235.198C908.01 236.389 894.582 243.541 894.582 260.951C894.582 273.587 901.757 278.834 912.175 278.834C923.287 278.834 934.402 272.629 941.112 263.095V235.198ZM973.759 296H972.136C951.994 296 947.598 289.799 942.966 278.834C934.402 289.086 922.825 296 908.239 296C887.173 296 873.281 281.693 873.281 262.142C873.281 229.237 912.175 220.888 941.112 220.415C941.112 198.236 932.315 193.47 916.341 193.47C907.775 193.47 898.516 195.375 886.478 203.959L883.47 186.552C892.496 179.4 906.851 174.393 921.898 174.393C950.606 174.393 961.95 188.222 961.95 230.428V254.272C961.95 270.965 962.877 278.834 974.913 278.834H977L973.759 296Z" fill="black"/>
<path d="M252.413 296L252.392 156.907L240.646 156.905L226.877 156.945L226.869 166.94C226.856 185.095 226.86 203.25 226.86 221.405C226.864 237.424 226.864 253.437 226.86 269.455L49.6208 269.446L49.6109 156.945L39.9033 156.907C37.867 156.899 35.8256 156.899 33.7893 156.907L24.0834 156.945L24.061 295.943" fill="black"/>
<path d="M197.56 43.2896L136.699 77.2371L177.86 155.514L152.325 169.759L111.165 91.4802L15.2747 144.969L0 115.922L207.817 0L276.473 130.565L250.941 144.806L197.56 43.2896Z" fill="black"/>
</svg>
