<svg width="47" height="47" viewBox="0 0 47 47" fill="none" xmlns="http://www.w3.org/2000/svg">
<circle cx="23.0609" cy="23.0609" r="23.0609" fill="url(#paint0_linear_0_1)"/>
<path d="M25.2344 24.2892C24.8284 24.832 24.3105 25.281 23.7157 25.606C23.1209 25.931 22.4632 26.1242 21.7872 26.1726C21.1111 26.221 20.4326 26.1235 19.7976 25.8866C19.1625 25.6497 18.5859 25.2791 18.1067 24.7997L15.2708 21.9638C14.4098 21.0723 13.9334 19.8784 13.9442 18.6391C13.9549 17.3998 14.452 16.2143 15.3284 15.338C16.2047 14.4616 17.3902 13.9646 18.6295 13.9538C19.8688 13.943 21.0627 14.4194 21.9541 15.2804L23.5801 16.8969M21.4531 22.3986C21.8591 21.8559 22.377 21.4068 22.9718 21.0819C23.5666 20.7569 24.2243 20.5637 24.9004 20.5152C25.5764 20.4668 26.2549 20.5644 26.89 20.8012C27.525 21.0381 28.1016 21.4088 28.5808 21.8881L31.4167 24.7241C32.2777 25.6155 32.7541 26.8095 32.7434 28.0488C32.7326 29.288 32.2355 30.4735 31.3592 31.3499C30.4828 32.2262 29.2973 32.7233 28.058 32.7341C26.8187 32.7448 25.6248 32.2684 24.7334 31.4074L23.1169 29.791" stroke="white" stroke-width="1.89062" stroke-linecap="round" stroke-linejoin="round"/>
<defs>
<linearGradient id="paint0_linear_0_1" x1="23.0609" y1="0" x2="23.0609" y2="46.1218" gradientUnits="userSpaceOnUse">
<stop stop-color="#1ECBC1"/>
<stop offset="1" stop-color="#063D5C"/>
</linearGradient>
</defs>
</svg>
