<svg width="20" height="23" viewBox="0 0 20 23" fill="none" xmlns="http://www.w3.org/2000/svg">
<path d="M17.0615 22.3529C16.2452 22.3529 15.5505 22.067 14.9774 21.4951C14.4042 20.9232 14.1176 20.2288 14.1176 19.4118C14.1176 19.2553 14.1312 19.0933 14.1584 18.9256C14.1855 18.758 14.2262 18.6003 14.2805 18.4525L5.17194 13.086C4.88386 13.4103 4.54902 13.6633 4.16741 13.845C3.78582 14.0268 3.37708 14.1176 2.94118 14.1176C2.12418 14.1176 1.42974 13.832 0.857853 13.2606C0.285951 12.6892 0 11.9954 0 11.1791C0 10.3629 0.285951 9.66817 0.857853 9.09503C1.42974 8.52187 2.12418 8.23529 2.94118 8.23529C3.37708 8.23529 3.78582 8.32617 4.16741 8.50791C4.54902 8.68966 4.88386 8.94268 5.17194 9.26697L14.2805 3.90044C14.2262 3.75264 14.1855 3.59492 14.1584 3.42729C14.1312 3.25967 14.1176 3.09763 14.1176 2.94118C14.1176 2.12418 14.4033 1.42974 14.9747 0.857853C15.5461 0.285951 16.2399 0 17.0561 0C17.8724 0 18.5671 0.285687 19.1403 0.857059C19.7134 1.42845 20 2.12226 20 2.9385C20 3.75477 19.714 4.44948 19.1421 5.02262C18.5703 5.59577 17.8758 5.88235 17.0588 5.88235C16.6229 5.88235 16.2142 5.79148 15.8326 5.60974C15.451 5.42799 15.1161 5.17497 14.8281 4.85068L5.71947 10.2172C5.77376 10.365 5.81449 10.5222 5.84165 10.6888C5.86878 10.8553 5.88235 11.0163 5.88235 11.1718C5.88235 11.3272 5.86878 11.4898 5.84165 11.6595C5.81449 11.8292 5.77376 11.9879 5.71947 12.1357L14.8281 17.5023C15.1161 17.178 15.451 16.925 15.8326 16.7432C16.2142 16.5615 16.6229 16.4706 17.0588 16.4706C17.8758 16.4706 18.5703 16.7563 19.1421 17.3276C19.714 17.899 20 18.5928 20 19.4091C20 20.2254 19.7143 20.9201 19.1429 21.4932C18.5715 22.0664 17.8777 22.3529 17.0615 22.3529ZM17.0588 4.70588C17.543 4.70588 17.9581 4.5328 18.3043 4.18665C18.6505 3.84049 18.8235 3.42533 18.8235 2.94118C18.8235 2.45702 18.6505 2.04186 18.3043 1.69571C17.9581 1.34955 17.543 1.17647 17.0588 1.17647C16.5747 1.17647 16.1595 1.34955 15.8134 1.69571C15.4672 2.04186 15.2941 2.45702 15.2941 2.94118C15.2941 3.42533 15.4672 3.84049 15.8134 4.18665C16.1595 4.5328 16.5747 4.70588 17.0588 4.70588ZM2.94118 12.9412C3.42533 12.9412 3.84049 12.7681 4.18665 12.4219C4.5328 12.0758 4.70588 11.6606 4.70588 11.1765C4.70588 10.6923 4.5328 10.2772 4.18665 9.931C3.84049 9.58484 3.42533 9.41176 2.94118 9.41176C2.45702 9.41176 2.04186 9.58484 1.69571 9.931C1.34955 10.2772 1.17647 10.6923 1.17647 11.1765C1.17647 11.6606 1.34955 12.0758 1.69571 12.4219C2.04186 12.7681 2.45702 12.9412 2.94118 12.9412ZM17.0588 21.1765C17.543 21.1765 17.9581 21.0034 18.3043 20.6572C18.6505 20.3111 18.8235 19.8959 18.8235 19.4118C18.8235 18.9276 18.6505 18.5125 18.3043 18.1663C17.9581 17.8201 17.543 17.6471 17.0588 17.6471C16.5747 17.6471 16.1595 17.8201 15.8134 18.1663C15.4672 18.5125 15.2941 18.9276 15.2941 19.4118C15.2941 19.8959 15.4672 20.3111 15.8134 20.6572C16.1595 21.0034 16.5747 21.1765 17.0588 21.1765Z" fill="black"/>
</svg>
